<svg width="58" height="58" viewBox="0 0 58 58" fill="none" xmlns="http://www.w3.org/2000/svg">
<rect width="58" height="58" rx="29" fill="#005887"/>
<path d="M31.68 43.32C29.1467 43.32 27.1733 42.68 25.76 41.4C24.3467 40.0933 23.64 38.16 23.64 35.6V16.72H29.88V35.52C29.88 36.4267 30.12 37.1333 30.6 37.64C31.08 38.12 31.7333 38.36 32.56 38.36C33.5467 38.36 34.3867 38.0933 35.08 37.56L36.76 41.96C36.12 42.4133 35.3467 42.76 34.44 43C33.56 43.2133 32.64 43.32 31.68 43.32ZM20.32 26.76V21.96H35.24V26.76H20.32Z" fill="white"/>
</svg>
